<?xml version="1.0" encoding="iso-8859-1"?>
<!-- Generator: Adobe Illustrator 17.1.0, SVG Export Plug-In . SVG Version: 6.00 Build 0)  -->
<!DOCTYPE svg PUBLIC "-//W3C//DTD SVG 1.1//EN" "http://www.w3.org/Graphics/SVG/1.1/DTD/svg11.dtd">
<svg version="1.1" xmlns="http://www.w3.org/2000/svg" xmlns:xlink="http://www.w3.org/1999/xlink" x="0px" y="0px"
	 viewBox="0 0 39.055 39.053" style="enable-background:new 0 0 39.055 39.053;" width="40" height="40" xml:space="preserve">
<g id="Facebook">
	<circle style="fill:#255B9F;" cx="19.527" cy="19.526" r="19.527"/>
	<path style="fill:#FFFFFF;" d="M16.273,31.73h4.882c0,0,0-6.739,0-12.204h3.623l0.445-4.882h-3.879v-1.952
		c0-0.951,0.634-1.173,1.079-1.173c0.445,0,2.738,0,2.738,0V7.338L21.39,7.322c-4.186,0-5.137,3.119-5.137,5.116v2.206h-2.421v4.882
		h2.441C16.273,25.058,16.273,31.73,16.273,31.73z"/>
	<circle style="fill:#255B9F;" cx="19.527" cy="19.526" r="19.527"/>
	<path style="fill:#FFFFFF;" d="M16.273,31.73h4.882c0,0,0-6.739,0-12.204h3.623l0.445-4.882h-3.879v-1.952
		c0-0.951,0.634-1.173,1.079-1.173c0.445,0,2.738,0,2.738,0V7.338L21.39,7.322c-4.186,0-5.137,3.119-5.137,5.116v2.206h-2.421v4.882
		h2.441C16.273,25.058,16.273,31.73,16.273,31.73z"/>
	<circle style="fill:#255B9F;" cx="19.527" cy="19.526" r="19.527"/>
	<path style="fill:#FFFFFF;" d="M16.273,31.73h4.882c0,0,0-6.739,0-12.204h3.623l0.445-4.882h-3.879v-1.952
		c0-0.951,0.634-1.173,1.079-1.173c0.445,0,2.738,0,2.738,0V7.338L21.39,7.322c-4.186,0-5.137,3.119-5.137,5.116v2.206h-2.421v4.882
		h2.441C16.273,25.058,16.273,31.73,16.273,31.73z"/>
</g>
<g id="Layer_1">
</g>
</svg>
