<?xml version="1.0" encoding="iso-8859-1"?>
<!-- Generator: Adobe Illustrator 17.1.0, SVG Export Plug-In . SVG Version: 6.00 Build 0)  -->
<!DOCTYPE svg PUBLIC "-//W3C//DTD SVG 1.1//EN" "http://www.w3.org/Graphics/SVG/1.1/DTD/svg11.dtd">
<svg version="1.1" xmlns="http://www.w3.org/2000/svg" xmlns:xlink="http://www.w3.org/1999/xlink" x="0px" y="0px"
	 viewBox="0 0 39.053 39.053" style="enable-background:new 0 0 39.053 39.053;" width="40" height="40" xml:space="preserve">
<g id="G_x2B_">
	<circle style="fill:#F05146;" cx="19.526" cy="19.526" r="19.526"/>
	<path style="fill:#FFFFFF;" d="M8.464,19.181c0.059-3.561,3.333-6.679,6.894-6.56c1.706-0.079,3.31,0.663,4.617,1.706
		c-0.558,0.634-1.135,1.244-1.752,1.815c-1.571-1.086-3.805-1.396-5.376-0.142c-2.247,1.554-2.35,5.224-0.188,6.897
		c2.102,1.907,6.075,0.96,6.656-1.96c-1.317-0.02-2.637,0-3.953-0.043c-0.003-0.785-0.007-1.571-0.003-2.356
		c2.201-0.007,4.402-0.01,6.607,0.007c0.132,1.848-0.112,3.815-1.247,5.343c-1.719,2.419-5.171,3.125-7.864,2.089
		C10.151,24.946,8.237,22.091,8.464,19.181z"/>
	<path style="fill:#FFFFFF;" d="M26.258,16.554c0.653,0,1.307,0,1.963,0c0.003,0.657,0.007,1.317,0.013,1.973
		c0.657,0.007,1.317,0.007,1.973,0.013c0,0.653,0,1.31,0,1.963c-0.657,0.007-1.313,0.01-1.973,0.016
		c-0.007,0.66-0.01,1.317-0.013,1.973c-0.657,0-1.31,0-1.967,0c-0.007-0.657-0.007-1.313-0.013-1.97
		c-0.657-0.007-1.317-0.013-1.973-0.02c0-0.653,0-1.307,0-1.963c0.657-0.007,1.313-0.01,1.973-0.013
		C26.245,17.867,26.251,17.211,26.258,16.554z"/>
</g>
<g id="Layer_1">
</g>
</svg>
