<?xml version="1.0" encoding="iso-8859-1"?>
<!-- Generator: Adobe Illustrator 17.1.0, SVG Export Plug-In . SVG Version: 6.00 Build 0)  -->
<!DOCTYPE svg PUBLIC "-//W3C//DTD SVG 1.1//EN" "http://www.w3.org/Graphics/SVG/1.1/DTD/svg11.dtd">
<svg version="1.1" xmlns="http://www.w3.org/2000/svg" xmlns:xlink="http://www.w3.org/1999/xlink" x="0px" y="0px"
	 viewBox="0 0 39.053 39.053" style="enable-background:new 0 0 39.053 39.053;" width="40" height="40" xml:space="preserve">
<g id="Instagram">
	<circle style="fill:#2E80A8;" cx="19.526" cy="19.526" r="19.526"/>
	<path style="fill:#FFFFFF;" d="M27.013,7.322H12.039c-2.601,0-4.716,2.115-4.716,4.716v4.983v9.992
		c0,2.601,2.115,4.716,4.716,4.716h14.974c2.601,0,4.718-2.115,4.718-4.716v-9.992v-4.983C31.73,9.437,29.614,7.322,27.013,7.322z
		 M28.366,10.137l0.539-0.003v0.539v3.598l-4.122,0.014l-0.014-4.136L28.366,10.137z M16.043,17.022
		c0.782-1.082,2.05-1.791,3.483-1.791c1.433,0,2.701,0.709,3.483,1.791c0.509,0.706,0.814,1.57,0.814,2.504
		c0,2.368-1.929,4.295-4.297,4.295c-2.369,0-4.297-1.928-4.297-4.295C15.23,18.592,15.535,17.728,16.043,17.022z M29.353,27.014
		c0,1.29-1.05,2.339-2.341,2.339H12.039c-1.29,0-2.339-1.049-2.339-2.339v-9.992h3.644c-0.315,0.774-0.491,1.619-0.491,2.504
		c0,3.68,2.994,6.674,6.674,6.674c3.68,0,6.674-2.994,6.674-6.674c0-0.885-0.178-1.731-0.493-2.504h3.645V27.014z"/>
	<circle style="fill:#2E80A8;" cx="19.526" cy="19.526" r="19.526"/>
	<path style="fill:#FFFFFF;" d="M27.013,7.322H12.039c-2.601,0-4.716,2.115-4.716,4.716v4.983v9.992
		c0,2.601,2.115,4.716,4.716,4.716h14.974c2.601,0,4.718-2.115,4.718-4.716v-9.992v-4.983C31.73,9.437,29.614,7.322,27.013,7.322z
		 M28.366,10.137l0.539-0.003v0.539v3.598l-4.122,0.014l-0.014-4.136L28.366,10.137z M16.043,17.022
		c0.782-1.082,2.05-1.791,3.483-1.791c1.433,0,2.701,0.709,3.483,1.791c0.509,0.706,0.814,1.57,0.814,2.504
		c0,2.368-1.929,4.295-4.297,4.295c-2.369,0-4.297-1.928-4.297-4.295C15.23,18.592,15.535,17.728,16.043,17.022z M29.353,27.014
		c0,1.29-1.05,2.339-2.341,2.339H12.039c-1.29,0-2.339-1.049-2.339-2.339v-9.992h3.644c-0.315,0.774-0.491,1.619-0.491,2.504
		c0,3.68,2.994,6.674,6.674,6.674c3.68,0,6.674-2.994,6.674-6.674c0-0.885-0.178-1.731-0.493-2.504h3.645V27.014z"/>
	<circle style="fill:#2E80A8;" cx="19.526" cy="19.526" r="19.526"/>
	<path style="fill:#FFFFFF;" d="M27.013,7.322H12.039c-2.601,0-4.716,2.115-4.716,4.716v4.983v9.992
		c0,2.601,2.115,4.716,4.716,4.716h14.974c2.601,0,4.718-2.115,4.718-4.716v-9.992v-4.983C31.73,9.437,29.614,7.322,27.013,7.322z
		 M28.366,10.137l0.539-0.003v0.539v3.598l-4.122,0.014l-0.014-4.136L28.366,10.137z M16.043,17.022
		c0.782-1.082,2.05-1.791,3.483-1.791c1.433,0,2.701,0.709,3.483,1.791c0.509,0.706,0.814,1.57,0.814,2.504
		c0,2.368-1.929,4.295-4.297,4.295c-2.369,0-4.297-1.928-4.297-4.295C15.23,18.592,15.535,17.728,16.043,17.022z M29.353,27.014
		c0,1.29-1.05,2.339-2.341,2.339H12.039c-1.29,0-2.339-1.049-2.339-2.339v-9.992h3.644c-0.315,0.774-0.491,1.619-0.491,2.504
		c0,3.68,2.994,6.674,6.674,6.674c3.68,0,6.674-2.994,6.674-6.674c0-0.885-0.178-1.731-0.493-2.504h3.645V27.014z"/>
</g>
<g id="Layer_1">
</g>
</svg>
