<svg id="Layer_1" data-name="Layer 1" xmlns="http://www.w3.org/2000/svg" viewBox="0 0 90.42 17.75" width="90.42" height="17.75"><defs><style>.cls-1{fill:#231f20;}.cls-2{fill:#fff;}</style></defs><title>real_druzi_mini_header</title><path class="cls-1" d="M34.89,1A37.88,37.88,0,0,1,40.5.61c3.5,0,5.75.61,7.51,1.86a7,7,0,0,1,3,6.07,8.12,8.12,0,0,1-2.86,6.58c-1.93,1.59-4.94,2.32-8.49,2.32a33.69,33.69,0,0,1-4.75-.27Zm3.89,13.38a9.71,9.71,0,0,0,1.54.07c4,0,6.53-2,6.53-5.7,0-3.45-2.37-5.16-6-5.16a10.4,10.4,0,0,0-2.05.17Z"/><path class="cls-1" d="M52.31,9.34c0-2,0-3.06-.1-4.06h3.33l.12,2.37h.1A3.76,3.76,0,0,1,59.28,5a3.1,3.1,0,0,1,.83.07v3.6A4.79,4.79,0,0,0,59,8.54a2.49,2.49,0,0,0-2.74,2,3.35,3.35,0,0,0,0,.71v6H52.31Z"/><path class="cls-1" d="M73.18,13.35c0,1.64,0,2.93.1,3.89H69.9l-.17-1.83h-.07a4.53,4.53,0,0,1-4.08,2.13c-2.47,0-4.52-1.47-4.52-5.28v-7h3.89v6.29c0,1.81.64,2.86,2.1,2.86A2.28,2.28,0,0,0,69.16,13a1.73,1.73,0,0,0,.12-.71v-7h3.89Z"/><path class="cls-1" d="M74.13,15.07l4-4.5c.78-.83,1.35-1.37,2.15-2.18v0H74.57V5.28H85.21V7.53l-3.84,4.33c-.73.81-1.42,1.54-2.23,2.27v0h6.29v3.06H74.13Z"/><path class="cls-1" d="M88.32,3.79a1.9,1.9,0,1,1,2.1-1.88,1.9,1.9,0,0,1-2.1,1.88ZM86.38,17.24v-12h3.89v12Z"/><path class="cls-2" d="M0,17.5l1.37-7.24c.28-1.46.46-2.95.58-4H3.64c-.09.79-.19,1.58-.3,2.43h.07C4.13,7.18,5.33,6,6.84,6a3.77,3.77,0,0,1,.53,0L7,8a2.8,2.8,0,0,0-.51,0c-1.67,0-3.15,2-3.64,4.64L1.92,17.5Z"/><path class="cls-2" d="M14.17,16.85a7.73,7.73,0,0,1-3.71.9c-3,0-4.27-2-4.27-4.52C6.19,9.84,8.7,6,12.31,6c2.13,0,3.29,1.28,3.29,2.88,0,2.95-3.32,3.73-7.47,3.67a4.65,4.65,0,0,0,.23,2.13,2.55,2.55,0,0,0,2.5,1.51,6.26,6.26,0,0,0,3-.79Zm-.42-7.91c0-.91-.7-1.41-1.72-1.41-1.83,0-3.2,1.79-3.66,3.55,3,0,5.38-.37,5.38-2.11Z"/><path class="cls-2" d="M22.86,17.5a28.94,28.94,0,0,1,.25-2.9h0c-1.23,2.32-2.76,3.15-4.36,3.15-2,0-3.22-1.58-3.22-3.71a7.84,7.84,0,0,1,7.77-8,10.44,10.44,0,0,1,3,.44L25.14,12.3a25.67,25.67,0,0,0-.49,5.2Zm1.25-9.79a5.21,5.21,0,0,0-1.34-.16c-2.9,0-5.27,3-5.29,6.15,0,1.25.44,2.48,1.92,2.48s3.5-2.09,4.06-5.08Z"/><path class="cls-2" d="M26.38,17.5,29.52,1h1.93L28.29,17.5Z"/></svg>