<?xml version="1.0" encoding="iso-8859-1"?>
<!-- Generator: Adobe Illustrator 17.1.0, SVG Export Plug-In . SVG Version: 6.00 Build 0)  -->
<!DOCTYPE svg PUBLIC "-//W3C//DTD SVG 1.1//EN" "http://www.w3.org/Graphics/SVG/1.1/DTD/svg11.dtd">
<svg version="1.1" xmlns="http://www.w3.org/2000/svg" xmlns:xlink="http://www.w3.org/1999/xlink" x="0px" y="0px"
	 viewBox="0 0 39.056 39.053" style="enable-background:new 0 0 39.056 39.053;" width="40" height="40" xml:space="preserve">
<g id="Twitter">
	<circle style="fill:#00ACE3;" cx="19.528" cy="19.526" r="19.528"/>
	<path style="fill:#FFFFFF;" d="M10.606,15.524c0.005,1.147,0.027,2.302,0.034,3.455c0.002,1.241,0.005,2.482,0.005,3.722
		c0,6.948,6.378,8.918,7.601,8.918c1.225,0,6.017,0.112,6.882,0.112c0.867,0,3.35-0.227,3.35-2.715s-1.762-3.381-2.952-3.381h-4.759
		c-3.385,0-3.926-1.483-3.926-2.858c0-0.653,0.042-1.729,0.082-3.047h7.951c1.191,0,3.459-0.483,3.459-2.639
		c0-2.153-1.046-3.565-2.451-3.565h-8.86c-0.01-3.107-0.213-6.204-3.279-6.204c-1.268,0-2.297,0.516-2.73,1.796
		c-0.57,1.682-0.419,3.652-0.412,5.404C10.604,14.855,10.606,15.19,10.606,15.524z"/>
	<circle style="fill:#00ACE3;" cx="19.528" cy="19.526" r="19.528"/>
	<path style="fill:#FFFFFF;" d="M10.606,15.524c0.005,1.147,0.027,2.302,0.034,3.455c0.002,1.241,0.005,2.482,0.005,3.722
		c0,6.948,6.378,8.918,7.601,8.918c1.225,0,6.017,0.112,6.882,0.112c0.867,0,3.35-0.227,3.35-2.715s-1.762-3.381-2.952-3.381h-4.759
		c-3.385,0-3.926-1.483-3.926-2.858c0-0.653,0.042-1.729,0.082-3.047h7.951c1.191,0,3.459-0.483,3.459-2.639
		c0-2.153-1.046-3.565-2.451-3.565h-8.86c-0.01-3.107-0.213-6.204-3.279-6.204c-1.268,0-2.297,0.516-2.73,1.796
		c-0.57,1.682-0.419,3.652-0.412,5.404C10.604,14.855,10.606,15.19,10.606,15.524z"/>
	<circle style="fill:#00ACE3;" cx="19.528" cy="19.526" r="19.528"/>
	<path style="fill:#FFFFFF;" d="M10.606,15.524c0.005,1.147,0.027,2.302,0.034,3.455c0.002,1.241,0.005,2.482,0.005,3.722
		c0,6.948,6.378,8.918,7.601,8.918c1.225,0,6.017,0.112,6.882,0.112c0.867,0,3.35-0.227,3.35-2.715s-1.762-3.381-2.952-3.381h-4.759
		c-3.385,0-3.926-1.483-3.926-2.858c0-0.653,0.042-1.729,0.082-3.047h7.951c1.191,0,3.459-0.483,3.459-2.639
		c0-2.153-1.046-3.565-2.451-3.565h-8.86c-0.01-3.107-0.213-6.204-3.279-6.204c-1.268,0-2.297,0.516-2.73,1.796
		c-0.57,1.682-0.419,3.652-0.412,5.404C10.604,14.855,10.606,15.19,10.606,15.524z"/>
</g>
<g id="Layer_1">
</g>
</svg>
